<svg width="179" height="68" viewBox="0 0 179 68" fill="none" xmlns="http://www.w3.org/2000/svg">
<g filter="url(#filter0_d_12_141)">
<rect x="16" width="147" height="44" rx="8" fill="black"/>
</g>
<path d="M63.408 25.04L67.992 18.56H69.612L65.028 25.04H63.408ZM63.408 26V25.04L64.596 24.74H69.516V26H63.408ZM63.684 18.86V17.6H69.612V18.56L68.412 18.86H63.684ZM72.8706 26.12C72.3506 26.12 71.8786 25.988 71.4546 25.724C71.0386 25.46 70.7066 25.104 70.4586 24.656C70.2186 24.2 70.0986 23.692 70.0986 23.132C70.0986 22.564 70.2186 22.056 70.4586 21.608C70.7066 21.152 71.0386 20.792 71.4546 20.528C71.8786 20.256 72.3506 20.12 72.8706 20.12C73.3106 20.12 73.6986 20.216 74.0346 20.408C74.3786 20.592 74.6506 20.848 74.8506 21.176C75.0506 21.504 75.1506 21.876 75.1506 22.292V23.948C75.1506 24.364 75.0506 24.736 74.8506 25.064C74.6586 25.392 74.3906 25.652 74.0466 25.844C73.7026 26.028 73.3106 26.12 72.8706 26.12ZM73.0866 24.872C73.5746 24.872 73.9666 24.708 74.2626 24.38C74.5666 24.052 74.7186 23.632 74.7186 23.12C74.7186 22.776 74.6506 22.472 74.5146 22.208C74.3786 21.944 74.1866 21.74 73.9386 21.596C73.6986 21.444 73.4146 21.368 73.0866 21.368C72.7666 21.368 72.4826 21.444 72.2346 21.596C71.9946 21.74 71.8026 21.944 71.6586 22.208C71.5226 22.472 71.4546 22.776 71.4546 23.12C71.4546 23.464 71.5226 23.768 71.6586 24.032C71.8026 24.296 71.9946 24.504 72.2346 24.656C72.4826 24.8 72.7666 24.872 73.0866 24.872ZM74.6346 26V24.452L74.8626 23.048L74.6346 21.656V20.24H75.9546V26H74.6346ZM80.0715 26.12C79.5035 26.12 78.9875 25.988 78.5235 25.724C78.0675 25.46 77.7075 25.1 77.4435 24.644C77.1795 24.188 77.0475 23.68 77.0475 23.12C77.0475 22.552 77.1795 22.044 77.4435 21.596C77.7075 21.14 78.0675 20.78 78.5235 20.516C78.9875 20.252 79.5035 20.12 80.0715 20.12C80.5195 20.12 80.9355 20.208 81.3195 20.384C81.7115 20.552 82.0435 20.796 82.3155 21.116L81.4515 21.992C81.2835 21.792 81.0795 21.644 80.8395 21.548C80.6075 21.444 80.3515 21.392 80.0715 21.392C79.7435 21.392 79.4515 21.468 79.1955 21.62C78.9475 21.764 78.7515 21.964 78.6075 22.22C78.4715 22.476 78.4035 22.776 78.4035 23.12C78.4035 23.456 78.4715 23.756 78.6075 24.02C78.7515 24.276 78.9475 24.48 79.1955 24.632C79.4515 24.776 79.7435 24.848 80.0715 24.848C80.3515 24.848 80.6075 24.8 80.8395 24.704C81.0795 24.6 81.2835 24.448 81.4515 24.248L82.3155 25.124C82.0435 25.444 81.7115 25.692 81.3195 25.868C80.9355 26.036 80.5195 26.12 80.0715 26.12ZM82.8352 25.28L86.0512 20.96H87.5992L84.3832 25.28H82.8352ZM82.8352 26V25.28L84.0352 24.8H87.5272V26H82.8352ZM83.0512 21.44V20.24H87.5992V20.96L86.3992 21.44H83.0512ZM92.6292 26V22.676C92.6292 22.292 92.5052 21.976 92.2572 21.728C92.0172 21.48 91.7052 21.356 91.3212 21.356C91.0652 21.356 90.8372 21.412 90.6372 21.524C90.4372 21.636 90.2812 21.792 90.1692 21.992C90.0572 22.192 90.0012 22.42 90.0012 22.676L89.4852 22.388C89.4852 21.948 89.5812 21.56 89.7732 21.224C89.9652 20.88 90.2292 20.612 90.5652 20.42C90.9092 20.22 91.2932 20.12 91.7172 20.12C92.1492 20.12 92.5332 20.232 92.8692 20.456C93.2052 20.672 93.4692 20.956 93.6612 21.308C93.8532 21.652 93.9492 22.012 93.9492 22.388V26H92.6292ZM88.6812 26V20.24H90.0012V26H88.6812ZM95.3026 26V20.24H96.6226V26H95.3026ZM95.9626 19.184C95.7386 19.184 95.5506 19.108 95.3986 18.956C95.2546 18.804 95.1826 18.616 95.1826 18.392C95.1826 18.168 95.2546 17.98 95.3986 17.828C95.5506 17.676 95.7386 17.6 95.9626 17.6C96.1946 17.6 96.3826 17.676 96.5266 17.828C96.6706 17.98 96.7426 18.168 96.7426 18.392C96.7426 18.616 96.6706 18.804 96.5266 18.956C96.3826 19.108 96.1946 19.184 95.9626 19.184ZM97.5271 28.52C97.1191 28.52 96.7871 28.456 96.5311 28.328C96.2671 28.2 96.0271 28.012 95.8111 27.764L96.6631 26.912C96.7591 27.04 96.8671 27.132 96.9871 27.188C97.1071 27.252 97.2551 27.284 97.4311 27.284C97.6471 27.284 97.8311 27.216 97.9831 27.08C98.1431 26.952 98.2231 26.76 98.2231 26.504V20.24H99.5431V26.492C99.5431 26.932 99.4471 27.3 99.2551 27.596C99.0711 27.9 98.8271 28.128 98.5231 28.28C98.2191 28.44 97.8871 28.52 97.5271 28.52ZM98.9071 19.184C98.6831 19.184 98.4951 19.108 98.3431 18.956C98.1991 18.804 98.1271 18.616 98.1271 18.392C98.1271 18.168 98.1991 17.98 98.3431 17.828C98.4951 17.676 98.6831 17.6 98.9071 17.6C99.1391 17.6 99.3271 17.676 99.4711 17.828C99.6151 17.98 99.6871 18.168 99.6871 18.392C99.6871 18.616 99.6151 18.804 99.4711 18.956C99.3271 19.108 99.1391 19.184 98.9071 19.184ZM103.412 26V20.24H104.732V26H103.412ZM107.24 26V22.568C107.24 22.184 107.12 21.888 106.88 21.68C106.64 21.464 106.344 21.356 105.992 21.356C105.752 21.356 105.536 21.404 105.344 21.5C105.16 21.596 105.012 21.736 104.9 21.92C104.788 22.096 104.732 22.312 104.732 22.568L104.216 22.28C104.216 21.84 104.312 21.46 104.504 21.14C104.696 20.82 104.956 20.572 105.284 20.396C105.612 20.212 105.98 20.12 106.388 20.12C106.796 20.12 107.164 20.208 107.492 20.384C107.82 20.56 108.08 20.808 108.272 21.128C108.464 21.448 108.56 21.832 108.56 22.28V26H107.24ZM111.068 26V22.568C111.068 22.184 110.948 21.888 110.708 21.68C110.468 21.464 110.172 21.356 109.82 21.356C109.588 21.356 109.376 21.404 109.184 21.5C108.992 21.596 108.84 21.736 108.728 21.92C108.616 22.096 108.56 22.312 108.56 22.568L107.816 22.28C107.856 21.84 107.984 21.46 108.2 21.14C108.416 20.82 108.692 20.572 109.028 20.396C109.372 20.212 109.748 20.12 110.156 20.12C110.572 20.12 110.948 20.208 111.284 20.384C111.62 20.56 111.888 20.808 112.088 21.128C112.288 21.448 112.388 21.832 112.388 22.28V26H111.068ZM116.388 26.12C115.828 26.12 115.32 25.988 114.864 25.724C114.408 25.452 114.044 25.088 113.772 24.632C113.508 24.176 113.376 23.668 113.376 23.108C113.376 22.548 113.508 22.044 113.772 21.596C114.044 21.148 114.408 20.792 114.864 20.528C115.32 20.256 115.828 20.12 116.388 20.12C116.956 20.12 117.468 20.252 117.924 20.516C118.38 20.78 118.74 21.14 119.004 21.596C119.276 22.044 119.412 22.548 119.412 23.108C119.412 23.668 119.276 24.176 119.004 24.632C118.74 25.088 118.38 25.452 117.924 25.724C117.468 25.988 116.956 26.12 116.388 26.12ZM116.388 24.848C116.716 24.848 117.004 24.776 117.252 24.632C117.508 24.48 117.704 24.272 117.84 24.008C117.984 23.744 118.056 23.444 118.056 23.108C118.056 22.772 117.984 22.476 117.84 22.22C117.696 21.964 117.5 21.764 117.252 21.62C117.004 21.468 116.716 21.392 116.388 21.392C116.068 21.392 115.78 21.468 115.524 21.62C115.276 21.764 115.08 21.964 114.936 22.22C114.8 22.476 114.732 22.772 114.732 23.108C114.732 23.444 114.8 23.744 114.936 24.008C115.08 24.272 115.276 24.48 115.524 24.632C115.78 24.776 116.068 24.848 116.388 24.848ZM115.716 19.412L115.116 18.812L116.652 16.856L117.672 17.876L115.716 19.412ZM122.049 26L119.733 20.24H121.101L122.661 24.428L122.253 24.44L123.777 20.24H124.545L126.069 24.44L125.661 24.428L127.221 20.24H128.589L126.273 26H125.505L123.945 22.016H124.377L122.817 26H122.049ZM129.334 26V20.24H130.654V26H129.334ZM129.994 19.184C129.77 19.184 129.582 19.108 129.43 18.956C129.286 18.804 129.214 18.616 129.214 18.392C129.214 18.168 129.286 17.98 129.43 17.828C129.582 17.676 129.77 17.6 129.994 17.6C130.226 17.6 130.414 17.676 130.558 17.828C130.702 17.98 130.774 18.168 130.774 18.392C130.774 18.616 130.702 18.804 130.558 18.956C130.414 19.108 130.226 19.184 129.994 19.184ZM134.786 26.12C134.218 26.12 133.702 25.988 133.238 25.724C132.782 25.46 132.422 25.1 132.158 24.644C131.894 24.188 131.762 23.68 131.762 23.12C131.762 22.552 131.894 22.044 132.158 21.596C132.422 21.14 132.782 20.78 133.238 20.516C133.702 20.252 134.218 20.12 134.786 20.12C135.234 20.12 135.65 20.208 136.034 20.384C136.426 20.552 136.758 20.796 137.03 21.116L136.166 21.992C135.998 21.792 135.794 21.644 135.554 21.548C135.322 21.444 135.066 21.392 134.786 21.392C134.458 21.392 134.166 21.468 133.91 21.62C133.662 21.764 133.466 21.964 133.322 22.22C133.186 22.476 133.118 22.776 133.118 23.12C133.118 23.456 133.186 23.756 133.322 24.02C133.466 24.276 133.662 24.48 133.91 24.632C134.166 24.776 134.458 24.848 134.786 24.848C135.066 24.848 135.322 24.8 135.554 24.704C135.794 24.6 135.998 24.448 136.166 24.248L137.03 25.124C136.758 25.444 136.426 25.692 136.034 25.868C135.65 26.036 135.234 26.12 134.786 26.12ZM134.066 19.412L133.466 18.812L135.002 16.856L136.022 17.876L134.066 19.412ZM138.99 26.12C138.734 26.12 138.522 26.036 138.354 25.868C138.194 25.692 138.114 25.48 138.114 25.232C138.114 24.976 138.194 24.764 138.354 24.596C138.522 24.428 138.734 24.344 138.99 24.344C139.246 24.344 139.454 24.428 139.614 24.596C139.782 24.764 139.866 24.976 139.866 25.232C139.866 25.48 139.782 25.692 139.614 25.868C139.454 26.036 139.246 26.12 138.99 26.12ZM142.47 26.12C142.214 26.12 142.002 26.036 141.834 25.868C141.674 25.692 141.594 25.48 141.594 25.232C141.594 24.976 141.674 24.764 141.834 24.596C142.002 24.428 142.214 24.344 142.47 24.344C142.726 24.344 142.934 24.428 143.094 24.596C143.262 24.764 143.346 24.976 143.346 25.232C143.346 25.48 143.262 25.692 143.094 25.868C142.934 26.036 142.726 26.12 142.47 26.12ZM145.951 26.12C145.695 26.12 145.483 26.036 145.315 25.868C145.155 25.692 145.075 25.48 145.075 25.232C145.075 24.976 145.155 24.764 145.315 24.596C145.483 24.428 145.695 24.344 145.951 24.344C146.207 24.344 146.415 24.428 146.575 24.596C146.743 24.764 146.827 24.976 146.827 25.232C146.827 25.48 146.743 25.692 146.575 25.868C146.415 26.036 146.207 26.12 145.951 26.12Z" fill="white"/>
<rect x="29" y="18" width="3" height="8" rx="1.5" fill="white"/>
<rect x="44" y="20" width="3" height="5" rx="1.5" fill="white"/>
<rect x="34" y="14" width="3" height="16" rx="1.5" fill="white"/>
<rect x="39" y="17" width="3" height="10" rx="1.5" fill="white"/>
<defs>
<filter id="filter0_d_12_141" x="0" y="0" width="179" height="76" filterUnits="userSpaceOnUse" color-interpolation-filters="sRGB">
<feFlood flood-opacity="0" result="BackgroundImageFix"/>
<feColorMatrix in="SourceAlpha" type="matrix" values="0 0 0 0 0 0 0 0 0 0 0 0 0 0 0 0 0 0 127 0" result="hardAlpha"/>
<feOffset dy="16"/>
<feGaussianBlur stdDeviation="8"/>
<feComposite in2="hardAlpha" operator="out"/>
<feColorMatrix type="matrix" values="0 0 0 0 0 0 0 0 0 0 0 0 0 0 0 0 0 0 0.15 0"/>
<feBlend mode="normal" in2="BackgroundImageFix" result="effect1_dropShadow_12_141"/>
<feBlend mode="normal" in="SourceGraphic" in2="effect1_dropShadow_12_141" result="shape"/>
</filter>
</defs>
</svg>
