<svg width="18" height="17" viewBox="0 0 18 17" fill="none" xmlns="http://www.w3.org/2000/svg">
<path fill-rule="evenodd" clip-rule="evenodd" d="M3.08514 2.99369C4.59213 2.77249 6.11327 2.66168 7.63641 2.66214C9.18277 2.66214 10.7018 2.77541 12.1877 2.99305C13.4464 3.17887 14.3182 4.28105 14.3182 5.51941V9.35032C14.3182 10.5887 13.4464 11.6909 12.1877 11.8767C10.9531 12.0574 9.69568 12.1662 8.41914 12.1981C8.35567 12.1993 8.2951 12.2248 8.24986 12.2693L5.58732 14.9312C5.52057 14.9979 5.43557 15.0433 5.34304 15.0617C5.25051 15.08 5.15461 15.0706 5.06746 15.0345C4.9803 14.9984 4.90579 14.9373 4.85334 14.8589C4.80089 14.7805 4.77285 14.6883 4.77277 14.594V12.0771C4.2085 12.0255 3.64574 11.9585 3.08514 11.876C1.82641 11.6915 0.95459 10.588 0.95459 9.34969V5.52005C0.95459 4.28169 1.82641 3.17823 3.08514 2.99369Z" fill="black"/>
<path d="M8.27406 3.23656L8.03368 3.30523C8.01988 3.25691 7.99071 3.21441 7.9506 3.18414C7.91052 3.1539 7.86168 3.13753 7.81147 3.13749L8.27406 3.23656ZM8.27406 3.23656L8.03368 3.30523L8.55535 5.1314C8.67934 5.56555 8.91196 5.96093 9.23122 6.28019C9.55049 6.59946 9.94587 6.83207 10.38 6.95607L12.206 7.47769C12.2543 7.49152 12.2968 7.52069 12.327 7.5608C12.3572 7.60091 12.3736 7.64977 12.3736 7.69999C12.3736 7.75022 12.3572 7.79908 12.327 7.83919C12.2968 7.8793 12.2543 7.90847 12.206 7.9223L10.38 8.44392C9.94587 8.56792 9.55049 8.80053 9.23122 9.1198C8.91196 9.43906 8.67934 9.83444 8.55535 10.2686L8.03373 12.0946C8.03372 12.0946 8.03372 12.0946 8.03371 12.0947C8.01987 12.1429 7.9907 12.1853 7.95062 12.2156C7.91051 12.2458 7.86165 12.2621 7.81142 12.2621C7.7612 12.2621 7.71234 12.2458 7.67223 12.2156C7.63214 12.1853 7.60298 12.1429 7.58914 12.0947C7.58913 12.0946 7.58912 12.0946 7.58911 12.0946L7.06749 10.2686C7.06749 10.2686 7.06749 10.2686 7.06749 10.2686C6.9435 9.83443 6.71088 9.43906 6.39162 9.1198C6.07236 8.80053 5.67698 8.56792 5.24283 8.44392L3.41683 7.9223C3.36855 7.90847 3.32608 7.8793 3.29585 7.83919C3.26562 7.79908 3.24927 7.75022 3.24927 7.69999C3.24927 7.64977 3.26562 7.60091 3.29585 7.5608C3.32608 7.52069 3.36855 7.49152 3.41683 7.47769L5.24283 6.95607C5.67698 6.83207 6.07235 6.59946 6.39162 6.28019C6.71088 5.96093 6.9435 5.56556 7.06749 5.13141C7.06749 5.13141 7.06749 5.1314 7.06749 5.1314L7.58916 3.30523L7.34878 3.23656M8.27406 3.23656H7.34878M7.34878 3.23656L7.58916 3.30523C7.60297 3.25691 7.63213 3.21441 7.67224 3.18414M7.34878 3.23656L7.67224 3.18414M13.0966 10.7928L13.0964 10.7923L12.8436 10.0332C12.8283 9.98709 12.7988 9.94701 12.7594 9.91862C12.72 9.89024 12.6727 9.87498 12.6241 9.87499L13.0966 10.7928ZM13.0966 10.7928C13.2176 11.1533 13.5001 11.438 13.8627 11.5587L13.0966 10.7928ZM13.8624 12.5039L13.8627 12.5038L14.6214 12.2505C14.6674 12.235 14.7073 12.2056 14.7356 12.1663C14.7639 12.1269 14.7791 12.0797 14.7791 12.0312C14.7791 11.9828 14.7639 11.9356 14.7356 11.8962C14.7074 11.857 14.6676 11.8276 14.6218 11.8122C14.6218 11.8121 14.6218 11.8121 14.6218 11.8121C14.6217 11.8121 14.6216 11.8121 14.6214 11.812L13.863 11.5588L13.8624 12.5039ZM13.8624 12.5039C13.5018 12.6249 13.217 12.9076 13.0964 13.2703L12.8431 14.0288C12.8431 14.0288 12.8431 14.0289 12.8431 14.0289C12.8277 14.0748 12.7982 14.1146 12.7589 14.1429C12.7196 14.1712 12.6724 14.1864 12.6239 14.1864C12.5755 14.1864 12.5282 14.1712 12.4889 14.1429C12.4497 14.1147 12.4203 14.0749 12.4048 14.0291C12.4048 14.0291 12.4048 14.0291 12.4048 14.0291C12.4048 14.029 12.4047 14.0289 12.4047 14.0288L12.1514 13.2701C12.1514 13.2701 12.1514 13.2701 12.1514 13.2701C12.0918 13.0917 11.9916 12.9295 11.8586 12.7966C11.7256 12.6636 11.5635 12.5633 11.3851 12.5038C11.3851 12.5038 11.3851 12.5038 11.3851 12.5038L10.6264 12.2505C10.6263 12.2504 10.6262 12.2504 10.6261 12.2504C10.5803 12.2349 10.5405 12.2055 10.5123 12.1663L10.3093 12.3122L10.5123 12.1663C10.484 12.1269 10.4688 12.0797 10.4688 12.0312C10.4688 11.9828 10.484 11.9356 10.5123 11.8962C10.5405 11.857 10.5803 11.8276 10.6261 11.8121C10.6262 11.8121 10.6263 11.8121 10.6264 11.812L11.3851 11.5587L11.3855 11.5586M13.8624 12.5039L11.3855 11.5586M11.3855 11.5586C11.7459 11.4376 12.0307 11.1551 12.1514 10.7924L11.3855 11.5586ZM12.4049 10.0332L12.4048 10.0333L12.1515 10.7922L12.4049 10.0332ZM12.4049 10.0332C12.4202 9.98714 12.4496 9.9471 12.489 9.91871M12.4049 10.0332L12.489 9.91871M7.67224 3.18414C7.71232 3.1539 7.76116 3.13753 7.81137 3.13749L7.67224 3.18414ZM12.489 9.91871C12.5283 9.89034 12.5756 9.87504 12.6241 9.87499L12.489 9.91871ZM13.5863 1.21249L13.5866 1.21249C13.6382 1.21247 13.6883 1.22969 13.7289 1.26142C13.7696 1.29316 13.7985 1.33758 13.811 1.38763L13.9765 2.05214L13.9766 2.0526C14.1505 2.74515 14.6913 3.28591 15.3838 3.45979L15.3843 3.4599L16.049 3.62545L16.0493 3.62553C16.0995 3.63795 16.144 3.6668 16.1759 3.70748C16.2077 3.74817 16.225 3.79834 16.225 3.84999C16.225 3.90165 16.2077 3.95182 16.1759 3.99251C16.144 4.03319 16.0995 4.06204 16.0493 4.07446L16.049 4.07454L15.3843 4.24009L15.3838 4.2402C14.6913 4.41407 14.1505 4.95484 13.9766 5.64738L13.9765 5.64785L13.811 6.31261L13.8109 6.31292C13.7985 6.36306 13.7696 6.4076 13.7289 6.43944C13.6883 6.47127 13.6381 6.48857 13.5864 6.48857C13.5348 6.48857 13.4846 6.47127 13.4439 6.43944C13.4032 6.4076 13.3744 6.36306 13.362 6.31292L13.3619 6.31261L13.1963 5.64785L13.1963 5.64763C13.1112 5.3075 12.9354 4.99687 12.6875 4.74896C12.4395 4.50104 12.1289 4.32517 11.7888 4.24014L11.7886 4.24009L11.1238 4.07454L11.1235 4.07446C11.0734 4.06204 11.0288 4.03319 10.997 3.99251C10.9651 3.95182 10.9478 3.90165 10.9478 3.84999C10.9478 3.79834 10.9651 3.74816 10.997 3.70748C11.0288 3.6668 11.0734 3.63795 11.1235 3.62553L11.1238 3.62545L11.7886 3.4599L11.7888 3.45985C12.1289 3.37482 12.4395 3.19894 12.6875 2.95103C12.9354 2.70312 13.1112 2.39249 13.1963 2.05236L13.1963 2.05214L13.3618 1.38763C13.3618 1.38761 13.3618 1.38759 13.3618 1.38758C13.3744 1.33755 13.4032 1.29315 13.4439 1.26142C13.4846 1.22969 13.5347 1.21247 13.5863 1.21249Z" fill="white" stroke="black" stroke-width="0.5"/>
</svg>
