<svg width="28" height="28" viewBox="0 0 28 28" fill="none" xmlns="http://www.w3.org/2000/svg">
<rect width="28" height="28" rx="8" fill="black"/>
<path fill-rule="evenodd" clip-rule="evenodd" d="M9.44872 8.127C10.9557 7.9058 12.4769 7.79499 14 7.79545C15.5464 7.79545 17.0654 7.90873 18.5513 8.12636C19.81 8.31218 20.6818 9.41436 20.6818 10.6527V14.4836C20.6818 15.722 19.81 16.8242 18.5513 17.01C17.3167 17.1907 16.0593 17.2995 14.7827 17.3314C14.7193 17.3326 14.6587 17.3581 14.6134 17.4026L11.9509 20.0645C11.8842 20.1312 11.7992 20.1766 11.7066 20.195C11.6141 20.2134 11.5182 20.2039 11.431 20.1678C11.3439 20.1317 11.2694 20.0706 11.2169 19.9922C11.1645 19.9138 11.1364 19.8216 11.1364 19.7273V17.2105C10.5721 17.1588 10.0093 17.0918 9.44872 17.0094C8.18999 16.8248 7.31818 15.7214 7.31818 14.483V10.6534C7.31818 9.415 8.18999 8.31154 9.44872 8.127Z" fill="white"/>
<path d="M14.6376 8.36989L14.3973 8.43856C14.3835 8.39024 14.3543 8.34774 14.3142 8.31747C14.2741 8.28723 14.2253 8.27086 14.1751 8.27082L14.6376 8.36989ZM14.6376 8.36989L14.3973 8.43856L14.9189 10.2647C15.0429 10.6989 15.2755 11.0943 15.5948 11.4135C15.9141 11.7328 16.3095 11.9654 16.7436 12.0894L18.5696 12.611C18.6179 12.6248 18.6603 12.654 18.6906 12.6941C18.7208 12.7342 18.7372 12.7831 18.7372 12.8333C18.7372 12.8835 18.7208 12.9324 18.6906 12.9725C18.6603 13.0126 18.6179 13.0418 18.5696 13.0556L16.7436 13.5773C16.3095 13.7012 15.9141 13.9339 15.5948 14.2531C15.2755 14.5724 15.0429 14.9678 14.9189 15.4019L14.3973 17.2279C14.3973 17.2279 14.3973 17.228 14.3973 17.228C14.3835 17.2762 14.3543 17.3187 14.3142 17.3489C14.2741 17.3791 14.2252 17.3955 14.175 17.3955C14.1248 17.3955 14.0759 17.3791 14.0358 17.3489C13.9957 17.3187 13.9666 17.2762 13.9527 17.228C13.9527 17.228 13.9527 17.2279 13.9527 17.2279L13.4311 15.4019C13.4311 15.4019 13.4311 15.4019 13.4311 15.4019C13.3071 14.9678 13.0745 14.5724 12.7552 14.2531C12.4359 13.9339 12.0406 13.7012 11.6064 13.5773L9.78042 13.0556C9.73214 13.0418 9.68967 13.0126 9.65944 12.9725C9.62921 12.9324 9.61285 12.8835 9.61285 12.8333C9.61285 12.7831 9.62921 12.7342 9.65944 12.6941C9.68967 12.654 9.73214 12.6248 9.78042 12.611L11.6064 12.0894C12.0406 11.9654 12.4359 11.7328 12.7552 11.4135C13.0745 11.0943 13.3071 10.6989 13.4311 10.2647C13.4311 10.2647 13.4311 10.2647 13.4311 10.2647L13.9528 8.43856L13.7124 8.36989M14.6376 8.36989H13.7124M13.7124 8.36989L13.9528 8.43856C13.9666 8.39024 13.9957 8.34774 14.0358 8.31747M13.7124 8.36989L14.0358 8.31747M19.4602 15.9261L19.46 15.9256L19.2072 15.1665C19.1918 15.1204 19.1624 15.0803 19.123 15.052C19.0836 15.0236 19.0363 15.0083 18.9877 15.0083L19.4602 15.9261ZM19.4602 15.9261C19.5811 16.2866 19.8637 16.5713 20.2263 16.692L19.4602 15.9261ZM20.226 17.6372L20.2263 17.6371L20.985 17.3838C21.0309 17.3684 21.0709 17.3389 21.0992 17.2996C21.1274 17.2603 21.1427 17.213 21.1427 17.1646C21.1427 17.1161 21.1274 17.0689 21.0992 17.0296C21.071 16.9903 21.0312 16.9609 20.9854 16.9455C20.9854 16.9455 20.9854 16.9455 20.9854 16.9455C20.9853 16.9454 20.9851 16.9454 20.985 16.9453L20.2266 16.6921L20.226 17.6372ZM20.226 17.6372C19.8654 17.7582 19.5806 18.0409 19.46 18.4037L19.2067 19.1621C19.2067 19.1621 19.2067 19.1622 19.2067 19.1623C19.1912 19.2081 19.1618 19.248 19.1225 19.2762C19.0832 19.3045 19.036 19.3197 18.9875 19.3197C18.9391 19.3197 18.8918 19.3045 18.8525 19.2762C18.8133 19.248 18.7839 19.2082 18.7684 19.1625C18.7684 19.1625 18.7684 19.1625 18.7684 19.1625C18.7684 19.1623 18.7683 19.1622 18.7683 19.1621L18.515 18.4034C18.515 18.4034 18.515 18.4034 18.515 18.4034C18.4554 18.225 18.3552 18.0629 18.2222 17.9299C18.0892 17.7969 17.9271 17.6967 17.7487 17.6371C17.7487 17.6371 17.7487 17.6371 17.7487 17.6371L16.99 17.3838C16.9899 17.3838 16.9898 17.3837 16.9897 17.3837C16.9439 17.3682 16.9041 17.3388 16.8759 17.2996L16.6729 17.4455L16.8759 17.2996C16.8476 17.2603 16.8324 17.213 16.8324 17.1646C16.8324 17.1161 16.8476 17.0689 16.8759 17.0296C16.9041 16.9903 16.9439 16.9609 16.9897 16.9455C16.9898 16.9454 16.9899 16.9454 16.99 16.9453L17.7487 16.692L17.7491 16.6919M20.226 17.6372L17.7491 16.6919M17.7491 16.6919C18.1095 16.5709 18.3942 16.2884 18.515 15.9258L17.7491 16.6919ZM18.7685 15.1665L18.7684 15.1667L18.515 15.9255L18.7685 15.1665ZM18.7685 15.1665C18.7838 15.1205 18.8132 15.0804 18.8526 15.052M18.7685 15.1665L18.8526 15.052M14.0358 8.31747C14.0759 8.28723 14.1247 8.27086 14.175 8.27082L14.0358 8.31747ZM18.8526 15.052C18.8919 15.0237 18.9392 15.0084 18.9877 15.0083L18.8526 15.052ZM19.9499 6.34582L19.9501 6.34582C20.0017 6.34579 20.0519 6.36302 20.0925 6.39475C20.1332 6.42649 20.1621 6.47091 20.1746 6.52096L20.3401 7.18547L20.3402 7.18593C20.5141 7.87847 21.0549 8.41924 21.7474 8.59312L21.7479 8.59323L22.4126 8.75878L22.4129 8.75886C22.4631 8.77128 22.5076 8.80013 22.5395 8.84081C22.5713 8.88149 22.5886 8.93167 22.5886 8.98332C22.5886 9.03498 22.5713 9.08515 22.5395 9.12584C22.5076 9.16652 22.4631 9.19537 22.4129 9.20779L22.4126 9.20787L21.7479 9.37342L21.7474 9.37353C21.0549 9.5474 20.5141 10.0882 20.3402 10.7807L20.3401 10.7812L20.1746 11.4459L20.1745 11.4462C20.1621 11.4964 20.1332 11.5409 20.0925 11.5728C20.0518 11.6046 20.0017 11.6219 19.95 11.6219C19.8984 11.6219 19.8482 11.6046 19.8075 11.5728C19.7668 11.5409 19.738 11.4964 19.7255 11.4462L19.7255 11.4459L19.5599 10.7812L19.5599 10.781C19.4748 10.4408 19.299 10.1302 19.051 9.88229C18.8031 9.63437 18.4925 9.4585 18.1524 9.37347L18.1522 9.37342L17.4874 9.20787L17.4871 9.20779C17.4369 9.19537 17.3924 9.16652 17.3606 9.12584C17.3287 9.08515 17.3114 9.03498 17.3114 8.98332C17.3114 8.93166 17.3287 8.88149 17.3606 8.84081C17.3924 8.80013 17.4369 8.77128 17.4871 8.75886L17.4874 8.75878L18.1522 8.59323L18.1524 8.59318C18.4925 8.50815 18.8031 8.33227 19.051 8.08436C19.299 7.83645 19.4748 7.52582 19.5599 7.18569L19.5599 7.18547L19.7254 6.52096C19.7254 6.52094 19.7254 6.52092 19.7254 6.52091C19.7379 6.47088 19.7668 6.42648 19.8075 6.39475C19.8482 6.36302 19.8983 6.34579 19.9499 6.34582Z" fill="#020202" stroke="white" stroke-width="0.5"/>
</svg>
