<svg width="92" height="84" viewBox="0 0 92 84" fill="none" xmlns="http://www.w3.org/2000/svg">
<g filter="url(#filter0_d_11_7)">
<rect x="16" width="60" height="60" rx="8" fill="black"/>
</g>
<path fill-rule="evenodd" clip-rule="evenodd" d="M36.2473 17.415C39.4765 16.941 42.7361 16.7035 46 16.7045C49.3136 16.7045 52.5686 16.9473 55.7527 17.4136C58.45 17.8118 60.3182 20.1736 60.3182 22.8273V31.0364C60.3182 33.69 58.45 36.0518 55.7527 36.45C53.1073 36.8373 50.4127 37.0704 47.6773 37.1386C47.5413 37.1413 47.4115 37.1959 47.3146 37.2913L41.6091 42.9954C41.4661 43.1383 41.2839 43.2355 41.0856 43.2749C40.8874 43.3143 40.6819 43.2941 40.4951 43.2167C40.3083 43.1394 40.1487 43.0085 40.0363 42.8404C39.9239 42.6724 39.8638 42.4749 39.8636 42.2727V36.8795C38.6545 36.7689 37.4486 36.6252 36.2473 36.4486C33.55 36.0532 31.6818 33.6886 31.6818 31.035V22.8286C31.6818 20.175 33.55 17.8104 36.2473 17.415Z" fill="white"/>
<path d="M47.3664 17.9355L46.8856 18.0728C46.8539 17.9618 46.7869 17.8642 46.6948 17.7947C46.6027 17.7252 46.4905 17.6876 46.3751 17.6875L47.3664 17.9355ZM47.3664 17.9355L46.8856 18.0728L48.0035 21.9861C48.2675 22.9105 48.7628 23.7525 49.4427 24.4323C50.1225 25.1122 50.9645 25.6075 51.8889 25.8715L55.8018 26.9893C55.8019 26.9893 55.8019 26.9893 55.802 26.9893C55.9128 27.0211 56.0103 27.0881 56.0797 27.1802C56.1492 27.2724 56.1868 27.3846 56.1868 27.5C56.1868 27.6154 56.1492 27.7276 56.0797 27.8198C56.0103 27.9119 55.9128 27.9789 55.802 28.0107C55.8019 28.0107 55.8019 28.0107 55.8018 28.0107L51.8889 29.1285C51.8889 29.1285 51.8889 29.1285 51.8889 29.1285C50.9644 29.3925 50.1225 29.8878 49.4427 30.5677C48.7628 31.2475 48.2675 32.0895 48.0035 33.0139L46.8857 36.9268C46.8539 37.0377 46.7869 37.1353 46.6948 37.2047C46.6026 37.2742 46.4904 37.3118 46.375 37.3118C46.2596 37.3118 46.1474 37.2742 46.0552 37.2047C45.9631 37.1353 45.8961 37.0377 45.8643 36.9268L44.7465 33.0139C44.4825 32.0895 43.9872 31.2475 43.3073 30.5677C42.6275 29.8878 41.7856 29.3925 40.8611 29.1285C40.8611 29.1285 40.8611 29.1285 40.8611 29.1285L36.9482 28.0107C36.9482 28.0107 36.9481 28.0107 36.9481 28.0107C36.8372 27.9789 36.7397 27.9119 36.6703 27.8198C36.6008 27.7276 36.5632 27.6154 36.5632 27.5C36.5632 27.3846 36.6008 27.2724 36.6703 27.1802C36.7397 27.0881 36.8372 27.0211 36.9481 26.9893C36.9481 26.9893 36.9482 26.9893 36.9482 26.9893L40.8611 25.8715C41.7855 25.6075 42.6275 25.1122 43.3073 24.4323C43.9872 23.7525 44.4825 22.9105 44.7465 21.9861L45.8644 18.0728L45.3836 17.9355M47.3664 17.9355H45.3836M60.1057 23.232C60.4303 21.9395 61.4395 20.9303 62.732 20.6058L64.1565 20.251C64.3801 20.1956 64.5787 20.0669 64.7207 19.8855C64.8627 19.7041 64.9398 19.4804 64.9398 19.25C64.9398 19.0196 64.8627 18.7959 64.7207 18.6145L60.1057 23.232ZM60.1057 23.232L59.751 24.6565L60.1057 23.232ZM45.3836 17.9355L45.8644 18.0728C45.8961 17.9618 45.9631 17.8642 46.0552 17.7947M45.3836 17.9355L46.0552 17.7947M58.7503 13.5625L58.7497 13.5625C58.6312 13.5624 58.5161 13.602 58.4226 13.6749C58.3293 13.7477 58.263 13.8496 58.2342 13.9643L58.7503 13.5625ZM58.7503 13.5625C58.8688 13.5624 58.9839 13.602 59.0774 13.6749M58.7503 13.5625L59.0774 13.6749M57.7342 34.1161L57.7339 34.115L57.1921 32.4884C57.1569 32.3825 57.0892 32.2904 56.9986 32.2252C56.9081 32.16 56.7994 32.125 56.6879 32.125L57.7342 34.1161ZM57.7342 34.1161C57.9899 34.8781 58.5872 35.4799 59.3537 35.7349C59.3538 35.7349 59.3539 35.7349 59.354 35.7349L60.9792 36.2776C61.0848 36.313 61.1765 36.3807 61.2415 36.4711C61.3064 36.5614 61.3414 36.6699 61.3414 36.7812C61.3414 36.8926 61.3064 37.0011 61.2415 37.0914C61.1765 37.1818 61.0848 37.2495 60.9792 37.2849L59.3534 37.8277L59.3527 37.828M57.7342 34.1161L59.3527 37.828M59.3527 37.828C58.5907 38.0837 57.9889 38.681 57.7339 39.4475C57.7339 39.4475 57.7338 39.4476 57.7338 39.4477L57.1911 41.073C57.1911 41.073 57.1911 41.0731 57.1911 41.0731C57.1557 41.1786 57.088 41.2703 56.9977 41.3352L57.2896 41.7411L56.9977 41.3352C56.9073 41.4002 56.7988 41.4352 56.6875 41.4352C56.5762 41.4352 56.4677 41.4002 56.3773 41.3352C56.2871 41.2703 56.2195 41.1787 56.184 41.0734C56.184 41.0732 56.1839 41.0731 56.1839 41.073L55.641 39.4472C55.641 39.4472 55.641 39.4472 55.641 39.4471C55.5152 39.0701 55.3033 38.7275 55.0223 38.4465L54.6687 38.8L55.0223 38.4465C54.7412 38.1654 54.3986 37.9536 54.0216 37.8277C54.0216 37.8277 54.0216 37.8277 54.0215 37.8277L52.3958 37.2849C52.3956 37.2848 52.3954 37.2847 52.3952 37.2847C52.2899 37.2492 52.1984 37.1816 52.1335 37.0914C52.0685 37.001 52.0336 36.8926 52.0336 36.7812C52.0336 36.6699 52.0685 36.5615 52.1335 36.4711C52.1984 36.3809 52.2899 36.3133 52.3952 36.2778C52.3954 36.2778 52.3956 36.2777 52.3958 36.2776L54.0216 35.7348L54.0223 35.7345M59.3527 37.828L54.0223 35.7345M54.0223 35.7345C54.7842 35.4788 55.3859 34.8817 55.641 34.1154L54.0223 35.7345ZM56.1843 32.4884L56.1841 32.4887L55.6412 34.1148L56.1843 32.4884ZM56.1843 32.4884C56.2195 32.3826 56.2871 32.2906 56.3774 32.2254M56.1843 32.4884L56.3774 32.2254M46.0552 17.7947C46.1473 17.7252 46.2595 17.6876 46.3749 17.6875L46.0552 17.7947ZM59.0774 13.6749C59.1707 13.7477 59.237 13.8496 59.2658 13.9643L59.0774 13.6749ZM56.3774 32.2254C56.4678 32.1602 56.5764 32.1251 56.6878 32.125L56.3774 32.2254ZM57.8794 15.3888L58.2341 13.9648H59.2659L59.6206 15.3888L59.6208 15.3898C59.9902 16.861 61.139 18.0098 62.6102 18.3792L62.6112 18.3794L64.0357 18.7342L64.0363 18.7343C64.1515 18.7629 64.2538 18.8291 64.3269 18.9226C64.4001 19.0161 64.4398 19.1313 64.4398 19.25C64.4398 19.3687 64.4001 19.4839 64.3269 19.5774C64.2538 19.6709 64.1515 19.7371 64.0363 19.7657L64.0357 19.7658L62.6112 20.1206L62.6102 20.1208C61.139 20.4902 59.9902 21.639 59.6208 23.1102L59.6206 23.1112L59.2658 24.5357L59.2657 24.5363C59.2371 24.6515 59.1709 24.7538 59.0774 24.8269C58.9839 24.9001 58.8687 24.9398 58.75 24.9398C58.6313 24.9398 58.5161 24.9001 58.4226 24.8269C58.3291 24.7538 58.2629 24.6515 58.2343 24.5363L58.2342 24.5357L57.8794 23.1112L57.8793 23.1107C57.6987 22.3882 57.3251 21.7283 56.7984 21.2016C56.2717 20.6749 55.6118 20.3013 54.8893 20.1207L54.8888 20.1206L53.4643 19.7658L53.4637 19.7657C53.3485 19.7371 53.2462 19.6709 53.1731 19.5774C53.0999 19.4839 53.0602 19.3687 53.0602 19.25C53.0602 19.1313 53.0999 19.0161 53.1731 18.9226C53.2462 18.8291 53.3485 18.7629 53.4637 18.7343L53.4643 18.7342L54.8888 18.3794L54.8893 18.3793C55.6118 18.1987 56.2717 17.8251 56.7984 17.2984L56.4448 16.9448L56.7984 17.2984C57.3251 16.7717 57.6987 16.1118 57.8793 15.3893L57.8794 15.3888Z" fill="#020202" stroke="white"/>
<defs>
<filter id="filter0_d_11_7" x="0" y="0" width="92" height="92" filterUnits="userSpaceOnUse" color-interpolation-filters="sRGB">
<feFlood flood-opacity="0" result="BackgroundImageFix"/>
<feColorMatrix in="SourceAlpha" type="matrix" values="0 0 0 0 0 0 0 0 0 0 0 0 0 0 0 0 0 0 127 0" result="hardAlpha"/>
<feOffset dy="16"/>
<feGaussianBlur stdDeviation="8"/>
<feComposite in2="hardAlpha" operator="out"/>
<feColorMatrix type="matrix" values="0 0 0 0 0 0 0 0 0 0 0 0 0 0 0 0 0 0 0.15 0"/>
<feBlend mode="normal" in2="BackgroundImageFix" result="effect1_dropShadow_11_7"/>
<feBlend mode="normal" in="SourceGraphic" in2="effect1_dropShadow_11_7" result="shape"/>
</filter>
</defs>
</svg>
